PathFileType	4	(X/Y/Z)	55_1_40_p0_0-218_filt_butterworth.trc
DataRate	CameraRate	NumFrames	NumMarkers	Units	OrigDataRate	OrigDataStartFrame	OrigNumFrames
41.0	41.0	6	27	m	41.0	0	218
Frame#	Time	RHip			RKnee			RAnkle			RBigToe			RSmallToe			RHeel			LHip			LKnee			LAnkle			LBigToe			LSmallToe			LHeel			Neck			Head			Nose			RShoulder			RElbow			RWrist			RThumb			RIndex			RPinky			LShoulder			LElbow			LWrist			LThumb			LIndex			LPinky			
		X1	Y1	Z1	X2	Y2	Z2	X3	Y3	Z3	X4	Y4	Z4	X5	Y5	Z5	X6	Y6	Z6	X7	Y7	Z7	X8	Y8	Z8	X9	Y9	Z9	X10	Y10	Z10	X11	Y11	Z11	X12	Y12	Z12	X13	Y13	Z13	X14	Y14	Z14	X15	Y15	Z15	X16	Y16	Z16	X17	Y17	Z17	X18	Y18	Z18	X19	Y19	Z19	X20	Y20	Z20	X21	Y21	Z21	X22	Y22	Z22	X23	Y23	Z23	X24	Y24	Z24	X25	Y25	Z25	X26	Y26	Z26	X27	Y27	Z27	
0	0.0	0.33002556211290235	0.9162516758369611	0.6075860095477643	0.32338518364866153	0.49683740187846753	0.5984024863036275	0.3204266368440945	0.07831359771943079	0.6265764221249528	0.2901989150326919	0.0647798768372431	0.43221734106222576	0.35736805845895087	0.04612876541427094	0.4543326827069146	0.30213617806233606	0.011897568968304018	0.6784573747815869	0.11337572660316794	0.9180561046069707	0.6198713941207681	0.12822410536647386	0.4917054802206546	0.6326208703999225	0.13240652434987837	0.11252439875970204	0.618532858180618	0.10968710116422052	0.06655605651051195	0.42606025141077525	0.06444230928424606	0.03623202591638438	0.48322295201027593	0.14861901320419874	0.026467338727618705	0.6796462134964577	0.22021326737907446	1.480290389590995	0.6316201208063178	0.2275815392773096	1.741586006365827	0.5744377248867422	0.20971577699838026	1.6212021746035479	0.5117237388043497	0.3757225144988115	1.3970197321977051	0.5881290078930712	0.39236023697318406	1.126849031238336	0.5448276246559036	0.29031987534037396	0.9470779620099491	0.4242552707083924	0.1860160585856129	0.8772472944334092	0.4321164290637217	0.18472837544782425	0.8592268982130251	0.4481718805735733	0.21725164787858464	0.8325232807016275	0.4255514035124719	0.07976398754101913	1.3914230470312638	0.6393283957754611	0.05923638458170993	1.1605094088572903	0.5610461477530733	0.16032884210574946	0.9502309412541207	0.48615428240721226	0.20451044188185202	0.8895406160703018	0.42303532950504263	0.21028002481635652	0.8620524357531534	0.4140658335873435	0.20830435468775974	0.8624142441034145	0.4240590257011932	
1	0.024390243902439	0.32918694371253954	0.9156417317345311	0.6062676252682994	0.32484570477367714	0.49872442564306574	0.5983933934149439	0.3194999793952933	0.07231259163811006	0.6325295429764589	0.28949168291875516	0.06453498630149108	0.43060986174152294	0.3566815442406345	0.04524257830304261	0.4534632423633233	0.3007239873429523	0.006276430613616667	0.6846449619342778	0.11392579050585605	0.9148468801858145	0.6200748510273622	0.12826939884839014	0.4916073033775271	0.632549726321625	0.13256379221486644	0.11248290080962511	0.6185465407697263	0.11164096730231325	0.07139267215167763	0.4212461040549104	0.06642393218342432	0.04346552130262437	0.47957680149828885	0.148388860680827	0.02575632224583792	0.6794856457739507	0.2218555369162752	1.48121226955352	0.6261917468522081	0.227268285454649	1.7414713611691672	0.5756936095113353	0.21230101046273284	1.61929367559266	0.5171936990344429	0.3758171741509843	1.3967968233713992	0.5883321687763771	0.3920272465344954	1.1259933208617634	0.5446769938687388	0.2883713799057469	0.9464532696824933	0.4314466484255427	0.18123481668011696	0.8663720441467485	0.45280398696296653	0.1810831722327312	0.8514319402382347	0.46554153792840813	0.2178905508928799	0.8349117977323675	0.42651777876287206	0.08004856124800584	1.3913767904659644	0.6393548398546652	0.059303415160209	1.1583654565298762	0.5607165755146178	0.16068708433384787	0.9511365745002535	0.4863845297622874	0.20432018623210446	0.890185019753824	0.4237245091480508	0.20964333112581188	0.8609692914612347	0.42084775901936794	0.20707950623158056	0.8629188376291572	0.43091810088237176	
2	0.048780487804878	0.32863174789209837	0.9153797213783683	0.6050925180342072	0.32623863122445346	0.5001751818772942	0.5985878560015659	0.318769784947615	0.06751221545040391	0.6373295260644665	0.28904796760861823	0.06407752595101283	0.43012536863831247	0.3560673495596154	0.04503987107910182	0.4527608122725845	0.29964429046935964	0.001835278831715659	0.689550097306953	0.1143629289744958	0.9123853909904551	0.6202077645514799	0.12832684195043453	0.49157723310002827	0.6324942594949359	0.13266773862452638	0.11241605821107425	0.6185586559973034	0.11299458707064391	0.0750095259539567	0.41722587579899656	0.06784147036420776	0.04813484329430653	0.47636553859932446	0.14823575975216494	0.025071294252264037	0.679450542693678	0.22303805433827223	1.481558071259735	0.6241811224260587	0.2271870322914163	1.741418326109322	0.5760034067112748	0.21361958034438738	1.6180861866699043	0.5204340819356447	0.37582476620861444	1.396756450588067	0.5883078232397969	0.39176432976495723	1.1257025395306934	0.5445245945492079	0.28668327386336895	0.9452902206197912	0.4377389230827043	0.17794642049314932	0.8597632363011187	0.4677378928189161	0.17835356676406947	0.8464586985378858	0.4780822535125794	0.21740081101995662	0.836710924633269	0.4267568144193543	0.08023779493981732	1.3913708591145322	0.6393678675671686	0.05932484132138639	1.1573184241096293	0.5604382465859661	0.16084484017416312	0.9522415155819702	0.486461376434179	0.20395848168018452	0.8902767918828359	0.4238345075121993	0.20899566257070276	0.8602356827939011	0.42471283946071553	0.20621113227228322	0.8635169490826619	0.43552200068491104	
3	0.073170731707317	0.3283293792620987	0.9154164399267047	0.6040619016389324	0.3275607324649378	0.5012271137273315	0.5989609029666053	0.3182196191072383	0.0638160366214661	0.6410676620349771	0.2887782293097015	0.06359456665305088	0.4303731615718754	0.35552269043829204	0.04543256946454469	0.4521459787888176	0.29886586985125246	-0.001519346222887027	0.6932756629803812	0.11469846297182631	0.910599237877463	0.6202794118005387	0.12839138002957617	0.4916013116044188	0.6324516567054859	0.13272410506673873	0.11232257421958335	0.6185694167854897	0.11385533726093694	0.07759536841279531	0.41395892913949467	0.06878121463771585	0.050717294672450515	0.473614657372895	0.14814881759933857	0.024421357145589802	0.6795178889337795	0.2238338026489272	1.4814573989847724	0.6248151247540765	0.22725918362560993	1.741409849822754	0.5756931274086604	0.21395642462445014	1.6174495857967968	0.5219043032212884	0.3757948297259565	1.3968336358283129	0.5881841077805506	0.39156602608471536	1.125836494186183	0.5443779853351728	0.2852812657666617	0.9438377315457956	0.44300966710312645	0.1759191917706204	0.8564874126443374	0.47769680566743816	0.17643954967973058	0.8437717234079971	0.48639830864395345	0.21611672150572458	0.8378710084076599	0.42642750840328847	0.08034871580705936	1.3913920913411157	0.6393723216955023	0.05931263146719094	1.157100868645244	0.5602150157612389	0.1608509619469903	0.9533486424217504	0.48641323347068266	0.20349168349588714	0.8899151278604235	0.4235147611044017	0.20835704538170555	0.8597594962862002	0.4262775128045224	0.20562842646736537	0.8640858745952443	0.438268057145146	
4	0.0975609756097561	0.32824924243306025	0.9157026825377723	0.6031769898759197	0.3288087779590774	0.501917664339357	0.5994875632131746	0.3178330474803418	0.061127622616451056	0.6438352415339929	0.2885929282294252	0.06327317927484774	0.43096254036149284	0.35504478289906277	0.0463325991814665	0.4515393282661418	0.29835750789832505	-0.0038809043956800804	0.6959245410353315	0.11494371346058664	0.9094160217034075	0.6202990698819557	0.12845795844278418	0.4916655811069589	0.6324191047389055	0.1327386330293839	0.11220115209068625	0.6185790360564252	0.11433059466491674	0.07933895002363982	0.41140462657286614	0.06932945581506807	0.05169017821807666	0.4713496518785129	0.1481171414034738	0.023815613324507077	0.6796646691723947	0.2243157648521016	1.4810398570037646	0.6273206310624678	0.2274061432952284	1.7414288809459253	0.575088782525593	0.21359648128402733	1.617253750934854	0.5220637786047075	0.37577690375726536	1.396963401072742	0.5880891588958578	0.3914268749139155	1.1262549917692892	0.5442447248644953	0.28419106416904666	0.9423447191844594	0.44713645291005844	0.17492145225844055	0.8556111149242224	0.4834593845444008	0.17524111161760617	0.8428355651445876	0.49109398464039644	0.21437257559609352	0.8383423960588674	0.4256888586360439	0.08039835104033775	1.3914273255098644	0.6393730450221977	0.05927875399957147	1.157445347185415	0.560050737834557	0.1607543019726245	0.9542608329420736	0.486268511919594	0.20298614694900727	0.8891992230896718	0.4229147064315719	0.20774750578949655	0.8594486184731803	0.42615821694392503	0.20526058247432466	0.8645029102982208	0.4395536022994116	
5	0.1219512195121951	0.3283607420155028	0.9161892443698028	0.6024389965386138	0.32997953717081957	0.5022842768595495	0.6001428656443857	0.31759363567310417	0.059350540900513046	0.645723555207515	0.28840252457521043	0.0633004346836426	0.431502804826447	0.35463084296432684	0.047651885951959586	0.4508614470586778	0.29808798702027156	-0.0053428555321515265	0.6975996135525729	0.11511000140351589	0.908763343324859	0.6202760159031486	0.1285215225470277	0.4917560838239093	0.6323937903808252	0.13271706400034242	0.11205049507991657	0.61858772673225	0.114527736074308	0.08042902128193169	0.40952233059557297	0.06957248470738404	0.05153079671219993	0.4695960161756915	0.1481298383456966	0.023263165187708615	0.6798678680876631	0.2245569239516576	1.4804350495918448	0.6309245185774404	0.22754931513827076	1.7414583681152995	0.5745163829841742	0.21282468830422568	1.6173685600455912	0.5213719237992365	0.37582052735679666	1.3970807683019584	0.5881511130829397	0.3913414156727042	1.126817839221068	0.5441323717750385	0.2834383776239462	0.9410601002597332	0.44999685292675057	0.17472152370252064	0.8562008848885893	0.4858042884856729	0.17465824321558823	0.8431147740436734	0.4927735628197762	0.21250266653697364	0.8380754345902177	0.42469986303899127	0.08040372783025843	1.391463399984926	0.6393748803297878	0.05923517732047693	1.158084416778835	0.5599492676000427	0.16060371257136116	0.9547809650654178	0.4860556228287096	0.2025082273093404	0.8882282729736651	0.4221837800006246	0.20718707002475256	0.8592109358898871	0.42497138977206045	0.2050367939506593	0.8646453523229055	0.43977596818404396	
